@startuml DiagrammeDeClasse1

class Utilisateur {
  - idUtilisateur: integer
  - nom: string
  - prenom: string
  - login: string
  - motDePasse: string
  - email: string
  + S_authentifier()
}

class Actionneur {
  - Id: integer
  - Nom: string
  - Position: string
  - Description: string
}

abstract class Capteur {
  - idCapteur: integer
  - nomCapteur: string
  - positionCapteur: string
  - descriptionCapteur: string
  + EnvoyerSignal()
  + DebutExecution()
  + FinExecution()
}

class Cap_Conso extends Capteur {
  + DetecterConsommation()
}

class Cap_Eclairage extends Capteur {
  + DetecterEclairage()
}

class Cap_Temperature extends Capteur {
  + DetecterTemperature()
}

class Detecteur_Gaz extends Capteur {
  + DetecterGaz()
}

class Cap_Incendie extends Capteur {
  + DetecterIncendie()
}

class Cap_Mouvement extends Capteur {
  + DetecterMouvement()
}

class Box_Domotique {
  - idBoxDomotique: integer
  - nomBoxDomotique: string
}

class SMART_HOME {
  - idUtilisateur: integer
  - nom: string
  - personne: Utilisateur
  - actionneur: Actionneur
  - capteur: Capteur
  - boxDomotique: Box_Domotique
  + S_authentifier()
  + Activer_equipement_electrique()
  + Desactiver_equipement_electrique()
  + Piloter_equipements_electriques()
  + Afficher_liste_equipements()
  + Consulter_etats_equipement_electrique()
  + Ajouter_equipement_electrique()
  + Supprimer_equipement()
  + Configurer_equipement_electrique()
}

abstract class Equipement {
  - idEquipement: int
  - nomEquipement: string
  - typeEquipement: string
  - marqueEquipement: string
  - modeFonctionnement: string
  - piece: Piece
  + toString(): string
}

class Lampe extends Equipement {
  - puissance: int
  - couleur: string
  - luminosite: int
  + allumer(): void
  + eteindre(): void
  + regler_luminosite(nouvelle_luminosite: int): void
  + consommationElectrique: float // Attribut dérivé
}

class Climatisation extends Equipement {
  - temperatureDesiree: float
  - puissance: int
  + allumer(): void
  + eteindre(): void
  + reglerTemperature(nouvelleTemperature: float): void
  + consommationElectrique: float // Attribut dérivé
}

class SystemeAlarme extends Equipement {
  - codeAlarme: string
  - etatAlarme: boolean
  + activer(): void
  + desactiver(code: string): void
}

class Porte extends Equipement {
  - etatPorte: boolean
  + ouvrir(): void
  + fermer(): void
}

abstract class Piece {
  - idPiece: int
  - nomPiece: string
  - etage: int
  - superficie: float
  + afficher_equipements(): void
}

class Alerte {
  - idAlerte: integer
  - nomAlerte: string
  - dateAlerte: date
  - typeAlerte: string
}

SMART_HOME "1" *-- "1..*" Piece : posséder
SMART_HOME "1" *-- "0..*" Equipement : contrôler
SMART_HOME "1..*" *-- "1..1" Utilisateur : personne
SMART_HOME "1" *-- "1..1" Box_Domotique : boxDomotique
SMART_HOME "1" *-- "1..*" Alerte : gérer
Utilisateur "1..*" *-- "0..*" Alerte : recevoir

Box_Domotique "1" --> "1..*" Capteur : contrôler
Capteur "1" --> "1..*" Alerte : Déclencher
Box_Domotique "1" --> "1..*" actionneur : contrôler
Box_Domotique "1" --> "1..*" Equipement : Contrôler
Capteur "1..*" --> "1..1" Equipement : Envoyer des données environnementales
Equipement "1..*" --> "1..1" Piece : Se situer dans
actionneur "1..*" --> "1..1" Equipement : agir sur

@enduml
